# xmcd CD database file
#
# Track frame offsets:
#	150
#	10431
#	24634
#	38352
#	53019
#	62741
#	74816
#	95975
#	109046
#	122796
#	137837
#	159859
#	179759
#	208204
#	222660
#	249621
#	267740
#	292026
#	306024
#	317010
#
# Disc length: 4411 seconds
#
# Revision: 0
# Processed by: cddbd v1.5.2PL0 Copyright (c) Steve Scherf et al.
# Submitted via: CDex 1.51
#
DISCID=41113914
DTITLE=Various Artist - Men in Jazz (La Première)(CD1)
DYEAR=2012
DGENRE=Jazz
TTITLE0=Frank Sinatra - I've Got A Crush On You
TTITLE1=Nat King Cole - When I Fall In Love
TTITLE2=Bryan Ferry - Time On My Hands
TTITLE3=Danny Williams - I´ve Got You Under My Skin
TTITLE4=Serge Gainsbourg - Du Jazz Dans Le Ravin
TTITLE5=Dean Martin - I Can't Give You Anything But Love
TTITLE6=Count Basie  and Joe Williams - Every Day I Have the Blues
TTITLE7=Bobby Darin - Beyond The Sea
TTITLE8=Chet Baker - But Not for Me
TTITLE9=Fred Astaire - Cheek To Cheek
TTITLE10=Louis Armstrong and Duke Ellington - Solitude
TTITLE11=Lou Rawls - You've Made Me So Very Happy
TTITLE12=Al Jarreau - Roof Garden
TTITLE13=Bobby McFerrin - Thinkin' About Your Body
TTITLE14=José James - Park bench people
TTITLE15=D'Angelo - Brown Sugar
TTITLE16=Dr. John - It Don't Mean A Thing
TTITLE17=Tom Jones - Sixteen Tons
TTITLE18=Louis Prima - I've Got The World On A String
TTITLE19=Joe Williams - Alright, Okay, You Win
EXTD=YEAR: 2012
EXTT0=
EXTT1=
EXTT2=
EXTT3=
EXTT4=
EXTT5=
EXTT6=
EXTT7=
EXTT8=
EXTT9=
EXTT10=
EXTT11=
EXTT12=
EXTT13=
EXTT14=
EXTT15=
EXTT16=
EXTT17=
EXTT18=
EXTT19=
PLAYORDER=
